<svg xmlns="http://www.w3.org/2000/svg" xml:space="preserve" viewBox="0 0 512 512"><path d="M19.187 1.613h259.028v421.434H19.187z" style="fill:#3e3b43"/><circle cx="148.149" cy="168.851" r="66.124" style="fill:#ff3f62"/><path d="M19.187 362.228h259.028v60.82H19.187zM19.187 1.613h259.028v64.579H19.187z" style="fill:#1d1d20"/><path d="m136.061 136.447 40.952 31.428a1.23 1.23 0 0 1 0 1.95l-40.952 31.428c-.808.621-1.977.044-1.977-.974v-62.856c.001-1.02 1.17-1.597 1.977-.976zM76.064 285.475h140.481v21.243H76.064z" style="fill:#ffbcab"/><path d="M76.067 324.755a7.708 7.708 0 0 1-7.709-7.709v-41.9a7.708 7.708 0 0 1 7.709-7.709 7.708 7.708 0 0 1 7.709 7.709v41.9a7.71 7.71 0 0 1-7.709 7.709zM216.545 324.755a7.708 7.708 0 0 1-7.709-7.709v-41.9a7.71 7.71 0 0 1 15.418 0v41.9a7.71 7.71 0 0 1-7.709 7.709z" style="fill:#ff3f62"/><path d="M312.65 512c-36.367 0-65.952-29.586-65.952-65.952a7.708 7.708 0 0 1 7.709-7.709 7.708 7.708 0 0 1 7.709 7.709c0 27.864 22.67 50.534 50.534 50.534s50.534-22.67 50.534-50.534l-.222-37.18V146.873a7.71 7.71 0 0 1 15.418 0v261.949l.222 37.18C378.603 482.413 349.016 512 312.65 512z" style="fill:#3e3b43"/><path d="M368.92 512h-56.27a7.71 7.71 0 0 1 0-15.418h56.27c27.864 0 50.534-22.67 50.534-50.534l-.222-37.18V196.261a7.71 7.71 0 0 1 15.418 0v212.561l.222 37.18c0 36.411-29.585 65.998-65.952 65.998z" style="fill:#3e3b43"/><path d="M185.384 40.755h-73.366a7.71 7.71 0 0 1 0-15.418h73.366a7.71 7.71 0 0 1 0 15.418zM229.394 423.048h48.814v21.169h-48.814z" style="fill:#898590;stroke:#77757e;stroke-miterlimit:10"/><path d="M278.214 152.467 19.187 316.929v-76.873L278.214 75.594z" style="opacity:.17;fill:#fff;enable-background:new"/><path d="M370.672 0c-6.438 0-11.706 5.267-11.706 11.706v10.066c0-7.915-6.476-14.39-14.39-14.39h-7.535c-17.61 0-32.019 14.408-32.019 32.019v12.721c0 17.61 14.408 32.019 32.019 32.019h7.535c7.915 0 14.39-6.476 14.39-14.39v65.418c0 6.438 5.268 11.706 11.706 11.706s11.705-5.267 11.705-11.706V11.706C382.377 5.267 377.11 0 370.672 0zM460.795 58.775h-7.535c-7.915 0-14.39 6.476-14.39 14.39V63.099c0-6.438-5.267-11.706-11.705-11.706s-11.706 5.267-11.706 11.706v123.463c0 6.438 5.268 11.706 11.706 11.706s11.705-5.267 11.705-11.706v-65.42c0 7.915 6.476 14.39 14.39 14.39h7.535c17.61 0 32.019-14.408 32.019-32.019v-12.72c-.002-17.609-14.409-32.018-32.019-32.018z" style="fill:#fff5cc"/><path d="M461.208 58.775h-7.535c-7.915 0-14.39 6.476-14.39 14.39v47.977c0 7.915 6.476 14.39 14.39 14.39h7.535V58.775zM336.732 84.137h7.535c7.915 0 14.39-6.476 14.39-14.39V21.77c0-7.915-6.476-14.39-14.39-14.39h-7.535v76.757z" style="fill:#ffd422"/></svg>